<?xml version="1.0" encoding="utf-8"?>
<!-- Generator: Adobe Illustrator 17.0.0, SVG Export Plug-In . SVG Version: 6.00 Build 0)  -->
<!DOCTYPE svg PUBLIC "-//W3C//DTD SVG 1.1//EN" "http://www.w3.org/Graphics/SVG/1.1/DTD/svg11.dtd">
<svg version="1.1" xmlns="http://www.w3.org/2000/svg" xmlns:xlink="http://www.w3.org/1999/xlink" x="0px" y="0px" width="116px"
	 height="81px" viewBox="0 0 116 81" enable-background="new 0 0 116 81" xml:space="preserve">
<g id="Слой_1">
	<path fill="#A6A5A5" d="M8.951,73.471h1.401v5.357h0.788v-5.357h1.401v-0.595H8.951V73.471z M18.174,76.702
		c0-0.425-0.032-0.779-0.096-1.063c-0.064-0.283-0.161-0.51-0.289-0.68c-0.128-0.17-0.289-0.29-0.482-0.361
		c-0.193-0.071-0.415-0.106-0.666-0.106c-0.251,0-0.473,0.035-0.666,0.106c-0.193,0.071-0.353,0.191-0.482,0.361
		c-0.128,0.17-0.225,0.397-0.289,0.68c-0.064,0.284-0.096,0.638-0.096,1.063c0,0.425,0.033,0.779,0.101,1.063
		c0.067,0.284,0.175,0.51,0.324,0.68c0.149,0.17,0.34,0.291,0.574,0.361c0.233,0.071,0.514,0.106,0.841,0.106
		c0.175,0,0.36-0.017,0.556-0.051c0.196-0.034,0.361-0.074,0.495-0.119v-0.34h-0.876c-0.222,0-0.41-0.024-0.565-0.072
		c-0.155-0.048-0.28-0.128-0.377-0.238c-0.096-0.111-0.168-0.258-0.215-0.442c-0.047-0.184-0.07-0.415-0.07-0.693h2.277V76.702z
		 M15.896,76.447c0-0.289,0.02-0.528,0.061-0.718c0.041-0.19,0.095-0.341,0.162-0.455c0.067-0.113,0.146-0.194,0.236-0.242
		c0.09-0.048,0.185-0.072,0.285-0.072c0.099,0,0.194,0.024,0.285,0.072c0.09,0.048,0.169,0.129,0.236,0.242
		c0.067,0.114,0.121,0.265,0.162,0.455c0.041,0.19,0.061,0.429,0.061,0.718H15.896z M22.36,74.831l-0.044-0.255h-0.657v5.952h0.788
		V78.7c0.134,0.063,0.27,0.113,0.407,0.153c0.137,0.04,0.293,0.059,0.469,0.059c0.228,0,0.432-0.035,0.613-0.106
		c0.181-0.071,0.333-0.191,0.455-0.361c0.123-0.17,0.216-0.397,0.28-0.68c0.064-0.283,0.096-0.638,0.096-1.063
		c0-0.425-0.032-0.779-0.096-1.063c-0.064-0.283-0.158-0.51-0.28-0.68c-0.123-0.17-0.274-0.29-0.455-0.361
		c-0.181-0.071-0.385-0.106-0.613-0.106c-0.175,0-0.345,0.03-0.508,0.089c-0.163,0.06-0.301,0.143-0.412,0.251H22.36z
		 M22.448,75.172c0.064-0.045,0.155-0.085,0.272-0.119c0.117-0.034,0.23-0.051,0.341-0.051c0.14,0,0.267,0.025,0.381,0.076
		c0.114,0.051,0.21,0.14,0.289,0.268c0.079,0.127,0.14,0.3,0.184,0.519s0.066,0.497,0.066,0.838c0,0.34-0.022,0.621-0.066,0.842
		c-0.044,0.221-0.105,0.395-0.184,0.523c-0.079,0.127-0.175,0.215-0.289,0.264c-0.114,0.048-0.241,0.072-0.381,0.072
		c-0.111,0-0.225-0.017-0.341-0.051c-0.117-0.034-0.207-0.074-0.272-0.119V75.172z M28.955,74.831l-0.044-0.255h-0.657v5.952h0.788
		V78.7c0.134,0.063,0.27,0.113,0.407,0.153c0.137,0.04,0.293,0.059,0.469,0.059c0.228,0,0.432-0.035,0.613-0.106
		c0.181-0.071,0.333-0.191,0.455-0.361c0.123-0.17,0.216-0.397,0.28-0.68c0.064-0.283,0.096-0.638,0.096-1.063
		c0-0.425-0.032-0.779-0.096-1.063c-0.064-0.283-0.158-0.51-0.28-0.68c-0.123-0.17-0.275-0.29-0.455-0.361
		c-0.181-0.071-0.385-0.106-0.613-0.106c-0.175,0-0.345,0.03-0.508,0.089c-0.163,0.06-0.301,0.143-0.412,0.251H28.955z
		 M29.043,75.172c0.064-0.045,0.155-0.085,0.271-0.119c0.117-0.034,0.231-0.051,0.342-0.051c0.14,0,0.267,0.025,0.381,0.076
		c0.114,0.051,0.21,0.14,0.289,0.268c0.079,0.127,0.14,0.3,0.184,0.519s0.066,0.497,0.066,0.838c0,0.34-0.022,0.621-0.066,0.842
		c-0.044,0.221-0.105,0.395-0.184,0.523c-0.079,0.127-0.175,0.215-0.289,0.264c-0.114,0.048-0.241,0.072-0.381,0.072
		c-0.111,0-0.225-0.017-0.342-0.051c-0.117-0.034-0.207-0.074-0.271-0.119V75.172z M37.127,78.828h0.788v-4.251h-0.92l-1.314,2.891
		h-0.044v-2.891h-0.788v4.251h0.832l1.401-2.976h0.044V78.828z M41.094,74.576v0.553h1.139v3.699h0.788v-3.699h1.139v-0.553H41.094z
		 M49.458,77.548c-0.047,0.224-0.108,0.403-0.184,0.536c-0.076,0.133-0.164,0.227-0.263,0.281c-0.099,0.054-0.204,0.081-0.315,0.081
		c-0.111,0-0.216-0.027-0.315-0.081c-0.099-0.054-0.187-0.147-0.263-0.281c-0.076-0.133-0.137-0.312-0.184-0.536
		c-0.047-0.224-0.07-0.506-0.07-0.846c0-0.34,0.023-0.622,0.07-0.846c0.047-0.224,0.108-0.402,0.184-0.536
		c0.076-0.133,0.163-0.227,0.263-0.281c0.099-0.054,0.204-0.081,0.315-0.081c0.111,0,0.216,0.027,0.315,0.081
		c0.099,0.054,0.187,0.147,0.263,0.281c0.076,0.133,0.137,0.312,0.184,0.536c0.047,0.224,0.07,0.506,0.07,0.846
		C49.528,77.042,49.505,77.324,49.458,77.548z M50.212,75.656c-0.07-0.283-0.174-0.511-0.311-0.684
		c-0.137-0.173-0.307-0.296-0.508-0.37c-0.201-0.074-0.434-0.11-0.696-0.11c-0.263,0-0.495,0.037-0.696,0.11
		c-0.201,0.074-0.371,0.197-0.508,0.37c-0.137,0.173-0.241,0.401-0.311,0.684c-0.07,0.284-0.105,0.632-0.105,1.046
		c0,0.414,0.035,0.762,0.105,1.046c0.07,0.284,0.174,0.512,0.311,0.684c0.137,0.173,0.307,0.296,0.508,0.37s0.434,0.11,0.696,0.11
		c0.263,0,0.495-0.037,0.696-0.11s0.371-0.197,0.508-0.37c0.137-0.173,0.241-0.401,0.311-0.684c0.07-0.283,0.105-0.632,0.105-1.046
		C50.317,76.288,50.282,75.94,50.212,75.656z M54.503,74.831l-0.044-0.255h-0.657v5.952h0.788V78.7
		c0.134,0.063,0.27,0.113,0.407,0.153c0.137,0.04,0.293,0.059,0.469,0.059c0.228,0,0.432-0.035,0.613-0.106
		c0.181-0.071,0.333-0.191,0.455-0.361c0.123-0.17,0.216-0.397,0.28-0.68c0.064-0.283,0.096-0.638,0.096-1.063
		c0-0.425-0.032-0.779-0.096-1.063c-0.064-0.283-0.158-0.51-0.28-0.68c-0.123-0.17-0.274-0.29-0.455-0.361
		c-0.181-0.071-0.385-0.106-0.613-0.106c-0.175,0-0.345,0.03-0.508,0.089c-0.164,0.06-0.301,0.143-0.412,0.251H54.503z
		 M54.591,75.172c0.064-0.045,0.155-0.085,0.272-0.119c0.117-0.034,0.231-0.051,0.342-0.051c0.14,0,0.267,0.025,0.381,0.076
		c0.114,0.051,0.21,0.14,0.289,0.268c0.079,0.127,0.14,0.3,0.184,0.519s0.066,0.497,0.066,0.838c0,0.34-0.022,0.621-0.066,0.842
		c-0.044,0.221-0.105,0.395-0.184,0.523c-0.079,0.127-0.175,0.215-0.289,0.264c-0.114,0.048-0.241,0.072-0.381,0.072
		c-0.111,0-0.225-0.017-0.342-0.051c-0.117-0.034-0.207-0.074-0.272-0.119V75.172z M62.675,78.828h0.788v-4.251h-0.92l-1.314,2.891
		h-0.044v-2.891h-0.788v4.251h0.832l1.401-2.976h0.044V78.828z M69.213,74.529c-0.225-0.026-0.469-0.038-0.731-0.038
		c-0.251,0-0.477,0.018-0.679,0.055c-0.201,0.037-0.372,0.105-0.512,0.204c-0.14,0.099-0.247,0.234-0.32,0.404
		c-0.073,0.17-0.109,0.388-0.109,0.655c0,0.17,0.028,0.326,0.083,0.468c0.055,0.142,0.131,0.264,0.228,0.366
		c0.096,0.102,0.209,0.183,0.337,0.242c0.128,0.06,0.266,0.092,0.412,0.098v0.034c-0.117,0.034-0.218,0.091-0.302,0.17
		c-0.085,0.08-0.162,0.216-0.232,0.408l-0.219,0.595c-0.029,0.085-0.08,0.156-0.153,0.212c-0.073,0.057-0.197,0.085-0.372,0.085
		v0.34c0.047,0.017,0.099,0.031,0.158,0.042c0.105,0.028,0.213,0.042,0.324,0.042c0.245,0,0.429-0.058,0.552-0.174
		c0.123-0.116,0.231-0.299,0.324-0.548l0.219-0.595c0.111-0.283,0.304-0.425,0.578-0.425h0.298v1.658h0.788v-4.166
		C69.661,74.599,69.438,74.555,69.213,74.529z M69.095,76.617h-0.613c-0.263,0-0.467-0.055-0.613-0.166
		c-0.146-0.111-0.219-0.324-0.219-0.642c0-0.317,0.073-0.531,0.219-0.642c0.146-0.11,0.35-0.166,0.613-0.166h0.613V76.617z
		 M90.864,77.221c-0.044-0.119-0.104-0.221-0.18-0.306c-0.076-0.085-0.161-0.153-0.254-0.204c-0.094-0.051-0.19-0.091-0.289-0.119
		v-0.034c0.076-0.028,0.15-0.064,0.223-0.106c0.073-0.043,0.139-0.098,0.197-0.166c0.058-0.068,0.105-0.152,0.14-0.251
		c0.035-0.099,0.052-0.217,0.052-0.353c0-0.232-0.032-0.425-0.096-0.578c-0.064-0.153-0.161-0.275-0.289-0.366
		c-0.129-0.091-0.289-0.154-0.482-0.191c-0.193-0.037-0.415-0.055-0.666-0.055c-0.222,0-0.441,0.013-0.657,0.038
		s-0.435,0.07-0.657,0.132v4.081c0.222,0.063,0.445,0.106,0.67,0.132c0.225,0.026,0.469,0.038,0.731,0.038
		c0.274,0,0.512-0.018,0.714-0.055c0.201-0.037,0.369-0.103,0.504-0.2c0.134-0.096,0.235-0.227,0.302-0.391
		c0.067-0.164,0.101-0.374,0.101-0.629C90.929,77.479,90.907,77.34,90.864,77.221z M88.696,75.001h0.526
		c0.222,0,0.401,0.05,0.539,0.149c0.137,0.099,0.206,0.276,0.206,0.531c0,0.255-0.069,0.432-0.206,0.531
		c-0.137,0.099-0.317,0.149-0.539,0.149h-0.526V75.001z M89.922,78.245c-0.146,0.105-0.35,0.157-0.613,0.157h-0.613v-1.53h0.613
		c0.263,0,0.467,0.052,0.613,0.157c0.146,0.105,0.219,0.308,0.219,0.608C90.141,77.938,90.068,78.14,89.922,78.245z M97.612,78.488
		v0.34c-0.041,0.017-0.088,0.031-0.14,0.042c-0.099,0.028-0.213,0.042-0.342,0.042c-0.245,0-0.437-0.061-0.574-0.183
		c-0.137-0.122-0.238-0.302-0.302-0.54l-0.219-0.808c-0.099-0.34-0.292-0.51-0.578-0.51h-0.298v1.956h-0.788v-4.251h0.788v1.743
		h0.298c0.093,0,0.181-0.037,0.263-0.11c0.082-0.074,0.158-0.207,0.228-0.4l0.219-0.595c0.093-0.249,0.202-0.432,0.324-0.548
		c0.123-0.116,0.307-0.174,0.552-0.174c0.052,0,0.108,0.004,0.166,0.013c0.058,0.009,0.111,0.018,0.158,0.03
		c0.058,0.017,0.111,0.031,0.158,0.042v0.34c-0.175,0-0.299,0.028-0.372,0.085c-0.073,0.057-0.124,0.128-0.153,0.213l-0.219,0.595
		c-0.094,0.255-0.187,0.435-0.28,0.54c-0.093,0.105-0.207,0.174-0.341,0.208v0.034c0.158,0.034,0.296,0.105,0.416,0.213
		c0.12,0.108,0.217,0.301,0.293,0.578l0.219,0.808c0.023,0.085,0.073,0.156,0.149,0.212C97.311,78.459,97.437,78.488,97.612,78.488z
		 M102.092,79.512c-0.05,0.156-0.108,0.278-0.175,0.366c-0.067,0.088-0.142,0.147-0.223,0.178c-0.082,0.031-0.178,0.047-0.289,0.047
		h-0.613v0.34c0.111,0.045,0.236,0.085,0.377,0.119c0.14,0.034,0.277,0.051,0.412,0.051c0.391,0,0.701-0.135,0.928-0.404
		c0.228-0.269,0.4-0.701,0.517-1.297l0.832-4.336h-0.788l-0.727,3.784c-0.076,0-0.146-0.035-0.21-0.106
		c-0.064-0.071-0.117-0.191-0.158-0.361l-0.788-3.316h-0.788l0.788,3.316c0.076,0.323,0.198,0.574,0.368,0.752
		c0.169,0.179,0.397,0.268,0.683,0.268C102.189,79.156,102.141,79.356,102.092,79.512z M109.707,75.001v-0.34
		c-0.134-0.045-0.299-0.085-0.495-0.119c-0.196-0.034-0.381-0.051-0.556-0.051c-0.275,0-0.512,0.035-0.714,0.106
		c-0.201,0.071-0.369,0.191-0.504,0.361c-0.134,0.17-0.235,0.397-0.302,0.68c-0.067,0.284-0.101,0.638-0.101,1.063
		c0,0.425,0.034,0.779,0.101,1.063c0.067,0.284,0.171,0.51,0.311,0.68c0.14,0.17,0.317,0.291,0.53,0.361
		c0.213,0.071,0.469,0.106,0.766,0.106c0.175,0,0.36-0.017,0.556-0.051c0.196-0.034,0.36-0.074,0.495-0.119v-0.34h-0.876
		c-0.187,0-0.349-0.024-0.486-0.072c-0.137-0.048-0.251-0.136-0.342-0.264c-0.091-0.128-0.158-0.302-0.201-0.523
		c-0.044-0.221-0.066-0.502-0.066-0.842c0-0.34,0.022-0.619,0.066-0.838s0.108-0.391,0.193-0.519
		c0.085-0.128,0.19-0.217,0.315-0.268c0.125-0.051,0.27-0.076,0.434-0.076H109.707z M115.032,78.232
		c-0.064,0.045-0.155,0.085-0.271,0.119c-0.117,0.034-0.231,0.051-0.342,0.051c-0.111,0-0.215-0.013-0.311-0.038
		c-0.096-0.026-0.18-0.069-0.25-0.132c-0.07-0.062-0.126-0.149-0.167-0.259c-0.041-0.11-0.061-0.251-0.061-0.421
		c0-0.317,0.076-0.531,0.228-0.642c0.152-0.111,0.339-0.166,0.561-0.166h0.613V78.232z M114.664,78.823
		c0.163-0.06,0.301-0.143,0.412-0.251h0.044l0.044,0.255h0.657v-2.891c0-0.295-0.034-0.537-0.101-0.727
		c-0.067-0.19-0.166-0.337-0.298-0.442c-0.131-0.105-0.295-0.177-0.49-0.217c-0.196-0.04-0.425-0.059-0.688-0.059
		c-0.175,0-0.361,0.017-0.556,0.051c-0.196,0.034-0.361,0.074-0.495,0.119v0.34h0.876c0.152,0,0.287,0.013,0.407,0.038
		c0.12,0.025,0.22,0.072,0.302,0.14c0.082,0.068,0.145,0.163,0.188,0.285c0.044,0.122,0.066,0.279,0.066,0.472v0.383
		c-0.134-0.022-0.28-0.042-0.438-0.059c-0.158-0.017-0.304-0.026-0.438-0.026c-0.199,0-0.378,0.019-0.539,0.055
		c-0.161,0.037-0.298,0.105-0.412,0.204c-0.114,0.099-0.203,0.234-0.267,0.404c-0.064,0.17-0.096,0.388-0.096,0.655
		c0,0.278,0.032,0.505,0.096,0.68c0.064,0.176,0.153,0.315,0.267,0.417c0.114,0.102,0.251,0.172,0.412,0.208
		c0.16,0.037,0.34,0.055,0.539,0.055C114.331,78.913,114.501,78.883,114.664,78.823z"/>
</g>
<g id="Слой_2">
	<path fill-rule="evenodd" clip-rule="evenodd" fill="#010202" d="M113.365,22.284c-0.183,0.604-0.592,1.224-1.477,1.451
		c-0.79,0.202-2.063-0.086-2.716-0.274c-1.346-0.419-5.214-0.9-7.974-0.23c-1.573,0.382-0.677,1.444,3.356,6.541
		c2.173,2.869,7.091,7.987,5.844,14.504c-0.448,2.345-2.918,6.073-8.175,6.051c-1.913-0.008-3.728-0.637-4.712-1.088
		c-0.985-0.452-2.241-1.181-2.595-1.45c-0.553-0.419-1.353-1.249-0.28,0.362c0.173,0.26,0.774,0.921,1.063,1.121
		c0.372,0.257,0.741,0.625,0.295,0.691c-0.394,0.059-1.443-0.276-1.997-0.604c-0.553-0.326-1.907-1.175-2.076-1.651
		c-0.17-0.476-0.731-0.887-1.438-1.811c-0.706-0.925-0.333-1.977-0.32-2.82c-0.125-0.389-0.174-1.117,0.08-1.611
		c0.28-0.546,1.085-0.482,1.757,0.201c0.672,0.684,2.689,2.866,4.432,3.752c1.744,0.884,4.737,0.493,6.07-0.812
		c1.502-1.47,1.196-4.007,0.799-5.315c-0.397-1.309-2.167-3.409-2.476-4.511c-0.309-1.1-1.355-1.625-1.637-2.014
		c-0.283-0.388-2.247-3.211-3.514-4.953c-2.141-2.944-2.265-5.81-0.519-7.571c3.163-3.193,14.722-4.125,17.903,0.044
		C113.787,21.243,113.414,22.123,113.365,22.284z M100.665,19.301c-1.238,0.145-1.636,0.387-2.116,0.604
		c-0.734,0.333-1.531,0.798-1.917,1.168c-0.493,0.473-0.285,0.84,0.08,0.605c0.527-0.34,0.886-0.626,1.997-1.127
		c1.111-0.502,1.855-0.634,2.196-0.725C101.246,19.733,101.704,19.179,100.665,19.301z M104.019,18.939c0,0-1.032-0.042-1.238,0.161
		c-0.206,0.203-0.067,0.281,0,0.362c0.067,0.082,0.548,0.143,0.879,0.12c0.331-0.022,0.939-0.076,1.078-0.161
		C104.877,19.337,105.179,19.059,104.019,18.939z M89.438,30.255c-2.215,5.251-3.634,13.628-4.076,16.121
		c-0.377,2.121-1.31,9.538-1.423,9.921c0.103-0.35-0.424,4.009-1.192,9.649c-0.789,5.072-1.268,7.405-1.936,8.701
		c-1.089,2.112-2.945,2.749-3.179,2.81c-0.395,0.102-0.643,0.042-0.692-0.155c-0.442-0.334,1.197-2.024,1.692-3.797
		c0.069-0.29,0.094-0.509,0.095-0.685c0.083-0.269,0.12-0.491-0.127-0.505c-0.034-0.042-0.071-0.071-0.107-0.088
		c-0.071-0.036-0.137-0.035-0.164-0.033c-0.064,0.036-0.121,0.072-0.179,0.108c-0.318-0.164-0.55-0.777-0.617-0.983
		c-0.027-0.093-0.026-0.079,0,0c0.014,0.049,0.035,0.123,0.065,0.24c0.011,0.042,0.017,0.074,0.025,0.108
		c-0.319-0.725-0.867-1.778-1.16-3.596c-0.22-1.363-0.791-3.703,0.336-11.969c0.447-3.276,0.994-5.839,1.229-7.114
		c0.189-1.022,0.237-1.327,0.104-1.371c-0.27-0.088-0.439,0.517-0.626,1.16c-0.598,2.052-1.68,6.332-1.976,8.693
		c-0.618,4.926-1.19,10.153,0.809,14.232c-0.931-1.263-1.944-3.831-1.928-7.265c-0.074-5.278,2.116-15.131,1.763-13.45
		c0.905-4.302,2.24-7.212,2.264-7.205c-0.49,0.357-0.811,0.551-1.154,0.709c-1.039,0.438-2.531,0.225-3.958-0.865
		c-3.119-2.384-4.034-7.885-4.096-8.247c-0.744-4.391-0.423-7.736,0.497-9.486c0.642-1.224,1.502-1.42,2.03-1.494
		c0.849-0.119,1.741,0.13,2.412,0.744c0.472,0.43,0.991,1.403,1.038,2.208c0.228,2.485-0.727,5.601-1.269,7.363
		c-0.017,0.078-1.151,2.952,1.503,2.077c0.91-0.397,2.189-1.265,3.681-3.137c-0.747,0.998-1.143,1.606-1.574,2.072
		c0.154-0.102,0.307-0.203,0.463-0.318c-1.602,1.57-3.422,2.148-3.864,2.271c-0.02,0.009-0.038,0.015-0.058,0.024
		c1.088-0.029,2.476-0.43,3.795-1.427c1.663-1.258,3.212-3.271,3.907-5.096c0.411-0.657,0.808-1.373,1.184-2.162
		c2.785-6.765,3.519-6.834,3.804-7.132c0.88-0.918,3.253-1.029,4.311,0.118c0.214,0.232,0.5,0.729,0.538,1.047
		c0.104,0.857-0.115,1.738-0.423,2.596C90.673,27.133,89.984,28.798,89.438,30.255z M79.124,33.651
		c0.163-0.218,0.34-0.452,0.541-0.709C79.482,33.194,79.302,33.429,79.124,33.651z M65.48,39.778
		c-0.063,0.209-0.656,1.538-0.731,1.743c-0.28,0.521-0.619,1.127-1,0.93c-0.294-0.255,0.255-0.742,0.414-1.161
		c0.398-1.241,0.621-2.791,0.517-3.131c-0.593,1.621-1.28,3.457-3.2,5.532c-1.033,1.14-2.274,1.836-3.654,2.016
		c-1.112,0.317-2.577,0.965-3.499,1.124c-1.603,0.276-4.62,0.748-7.922-3.566c-1.623-2.514-2.261-5.636-0.961-11.508
		c-0.218,0.983,1.076-5.354,3.58-8.903c1.982-2.804,5.283-4.172,8.681-3.021c0.729,0.438,1.361,0.369,1.852,0.259
		c1.068-0.241,1.996-0.213,3,0.193c2.067,0.789,4.602,4.174,4.698,10.934c-0.054,0.806-0.091,1.642-0.237,2.435
		C66.624,36.546,65.879,38.762,65.48,39.778z M61.594,26.419c-0.525-0.605-1.122-0.747-1.292-0.521
		c-0.205,0.271-0.036,1.269,0.258,1.565c0.268,0.268,0.419,1.059,0.517,1.305c0.133,0.336,0.525,0.614,0.775,0.783
		c0.308,0.208,0.511-0.55,0.517-1.044C62.374,28.117,62.119,27.024,61.594,26.419z M62.554,34.99
		c-0.056-0.77-0.132-0.329-0.747-0.59c-0.958-0.405-4.439-1.129-5.435-7.499c-0.113-1.481-0.98-1.527-1.932-0.891
		c-0.819,0.548-1.846,1.367-2.743,5.658c-0.263,1.284-0.45,2.679-0.232,4.108c0.346,1.62,0.755,2.651,1.584,3.992
		c1.14,1.62,3.104,2.564,5.525,2.054c0.415-0.136,1.151-0.493,1.816-1.395c0.657-0.891,0.949-1.341,1.391-2.636
		c0.283-0.829,0.387-1.161,0.618-1.899C62.482,35.221,62.614,35.817,62.554,34.99z M40.247,13.066
		c-0.853,0.376-1.991,0.35-3.38-0.376c-0.828-0.368-1.668-0.776-2.514-1.149c-0.47-0.207-2.921-0.987-3.728-1.142
		C19.256,8.217,10.968,12.54,9.408,14.046c-0.547,0.528-0.734,1.072-0.699,1.599c-0.172,0.919,0.239,3.233,6.567,6.704
		c0.801,0.44,7.208,3.627,9.103,4.591c0.176-0.351-4.908-3.131-4.908-3.131c-1.954-1.079-4.464-2.565-6.352-3.99
		c2.088,1.155,3.211,1.577,5.865,2.963c2.01,1.115,16.465,8.052,21.677,14.486c5.761,7.111,5.648,14.347,4.206,18.227
		c-1.691,4.547-4.998,7.516-8.539,9.245c-6.162,3.011-14.391,1.241-18.698-3.512c-0.795-0.877-1.492-1.831-1.953-2.578
		c-0.229-0.358-0.058-0.596,0.038-0.659c0.324-0.213,0.531,0.052,0.654,0.194c0.217,0.25,0.547,0.615,0.885,0.852
		c0.652,0.459,0.876,0.045,0.577-0.31c-0.201-0.238-0.082-0.592,0.193-0.581c0.181-0.013,0.353,0.083,0.462,0.31
		c0.086,0.18,0.228,0.353,0.346,0.465c0.152,0.145,0.546,0.22,0.653,0.077c0.258-0.339,0.013-0.479-0.653-1.046
		c-1.276-1.086-3.877-4.439-4.295-7.937c-0.239-1.998,0.147-3.363,0.796-4.347c0.477-0.719,1.095-1.042,1.308-0.854
		c0.231,0.18-0.056,0.599-0.154,0.737c-0.932,1.383-0.771,4.163,0.115,6.123c1.717,3.794,6.442,9.066,13.575,7.247
		c5.18-1.322,6.959-6.206,7.191-6.743c0.809-2.244,0.733-4.295,0.318-5.991c0.145-0.089,0.049-0.595-0.214-1.108
		c-0.117-0.23-0.254-0.485-0.423-0.772c-0.695-1.591-1.551-2.622-1.741-2.842c-1.011-1.169-2.271-2.411-3.477-3.354
		c-0.702-0.562-1.458-1.131-2.245-1.698c-0.314-0.316-0.485-0.565-0.371-0.674c0.361-0.366,6.573,4.157,9.719,8.914
		c0.279,0.488,1.079,1.641,1.374,1.628c0.238-0.085-0.042-1.024-0.577-2.055c-1.03-1.874-3.36-5.046-8.73-9
		c-3.703-2.697-20.314-11.991-20.399-12.042c-0.118-0.072-0.925-0.542-1.413-0.812c-0.314-0.173-0.387,0.065-0.309,0.133
		c1.061,0.906,1.995,1.611,1.837,1.802c-0.189,0.155-0.368,0.176-0.57,0.127c-1.06-0.666-1.939-1.243-2.666-1.741
		c-3.443-2.362-4.629-4.365-4.957-4.973c-1.031-1.907-1.911-5.036,0.55-8.208c2.298-2.688,6.056-4.502,10.183-5.89
		c10.859-3.294,17.702-2.124,21.424-0.67c7.655,2.992,7.416,7.05,7.362,7.493C41.927,11.381,41.368,12.57,40.247,13.066z
		 M41.307,49.58c0.64,0.06,0.081-1.766-0.266-1.534C40.655,48.028,40.917,49.365,41.307,49.58z M13.792,51.403
		c0.281-0.016,0.378,0.254,0.423,0.426c0.045,0.175,0.163,0.514,0.269,0.776c0.087,0.213,0.094,0.632-0.192,0.659
		c-0.278,0.025-0.453-0.225-0.577-0.465c-0.124-0.241-0.231-0.97-0.231-0.97C13.463,51.712,13.558,51.417,13.792,51.403z
		 M14.754,55.744c0.244,0.088,0.172-0.009,0.231-0.156c0.058-0.146,0.209-0.433,0.192-0.581c-0.017-0.149-0.037-0.461,0.154-0.582
		c0.191-0.121,0.338-0.092,0.5,0.31c0.162,0.403,0.608,1.152,1.038,1.705c0.377,0.485,0.843,0.806,0.923,1.008
		c0.064,0.162-0.032,0.473-0.346,0.388c-0.271-0.075-0.544-0.42-0.807-0.775c-0.136-0.183-0.214-0.318-0.385-0.272
		c-0.171,0.046-0.461-0.244-0.615-0.154c-0.155,0.088-0.165,0.174-0.154,0.271c0,0-0.017,0.365-0.192,0.465
		c-0.175,0.101-0.423-0.015-0.538-0.193c-0.116-0.178-0.449-0.656-0.346-1.008C14.51,55.819,14.509,55.656,14.754,55.744z
		 M97.792,50.31c0.26,0.308-0.145,0.505-0.549,0.315c-0.404-0.192-0.093-0.475-0.093-0.475C97.375,50.037,97.531,50,97.792,50.31z"
		/>
</g>
</svg>
