<svg id="fb_2.svg" data-name="fb 2.svg" xmlns="http://www.w3.org/2000/svg" width="40.906" height="41" viewBox="0 0 40.906 41">
  <defs>
    <style>
      .cls-1 {
        fill-opacity: 0;
        stroke: #202021;
        stroke-linejoin: round;
        stroke-width: 1px;
      }

      .cls-2 {
        fill-rule: evenodd;
      }
    </style>
  </defs>
  <ellipse id="Rectangle_46_copy_17" data-name="Rectangle 46 copy 17" class="cls-1" cx="20.453" cy="20.5" rx="19.953" ry="20"/>
  <path id="fb" class="cls-2" d="M181.318,336.925c0-1.349-.005-2.7,0-4.046,0-.228-0.06-0.3-0.281-0.29-0.408.017-.817,0-1.225,0.008a0.181,0.181,0,0,1-.224-0.223q0.012-1.263,0-2.525c0-.162.046-0.216,0.2-0.212,0.418,0.01.836-.012,1.253,0.009,0.241,0.012.291-.076,0.286-0.307q-0.022-.962,0-1.922a3.767,3.767,0,0,1,.672-2.149,2.872,2.872,0,0,1,2.324-1.218c0.963-.043,1.929-0.019,2.894-0.03a0.147,0.147,0,0,1,.174.183q-0.006,1.278,0,2.554a0.157,0.157,0,0,1-.191.195c-0.464-.007-0.928,0-1.392,0a0.931,0.931,0,0,0-1.026.96c-0.031.5-.008,1.013-0.02,1.52,0,0.18.1,0.168,0.216,0.168,0.705,0,1.411.007,2.116,0,0.207,0,.275.045,0.251,0.27-0.089.846-.165,1.693-0.235,2.541a0.212,0.212,0,0,1-.268.224c-0.556-.008-1.113-0.006-1.669,0-0.4,0-.361-0.06-0.361.36,0,2.64-.006,5.28,0,7.92,0,0.278-.068.348-0.335,0.343q-1.434-.027-2.867,0c-0.269.007-.314-0.089-0.312-0.335C181.323,339.584,181.318,338.254,181.318,336.925Z" transform="translate(-162.5 -312.5)"/>
</svg>
