<?xml version="1.0" encoding="utf-8"?>
<!-- Generator: Adobe Illustrator 21.0.2, SVG Export Plug-In . SVG Version: 6.00 Build 0)  -->
<svg version="1.1" id="Режим_изоляции"
	 xmlns="http://www.w3.org/2000/svg" xmlns:xlink="http://www.w3.org/1999/xlink" x="0px" y="0px" viewBox="0 0 20.5 17.9"
	 style="enable-background:new 0 0 20.5 17.9;" xml:space="preserve">
<style type="text/css">
	.st0{fill-rule:evenodd;clip-rule:evenodd;}
</style>
<path class="st0" d="M14.9,17.9H5.1c-0.5,0-1-0.2-1.3-0.5v0C3.4,17,3.2,16.5,3.2,16v-5.7L1.7,9.5C1.6,9.6,1.3,9.7,1.1,9.7
	c-0.3,0-0.6-0.1-0.8-0.3v0C0.1,9.2,0,8.9,0,8.6C0,8.3,0.1,8,0.3,7.8l0,0c0.2-0.2,0.5-0.3,0.8-0.3c0.3,0,0.6,0.1,0.8,0.3
	C2.1,8,2.2,8.3,2.2,8.5l1,0.6V8.3V7.7h0.5h12.5h0.5v0.5v0.6l0.7-0.4c0-0.3,0.1-0.5,0.3-0.7h0c0.2-0.2,0.5-0.3,0.8-0.3
	c0.3,0,0.6,0.1,0.8,0.3s0.3,0.5,0.3,0.8c0,0.3-0.1,0.6-0.3,0.8v0c-0.2,0.2-0.5,0.3-0.8,0.3c-0.2,0-0.5-0.1-0.6-0.2l-1.1,0.6V16
	c0,0.5-0.2,1-0.5,1.3l0,0l0,0C15.9,17.7,15.4,17.9,14.9,17.9L14.9,17.9z M17.5,5.4c0.3-0.1,1-0.3,1.5-0.9c0.6-0.9,0.8-1.7,0.8-1.7
	l0.7,0.1c0,0-0.2,0.9-0.9,2c-0.8,1.1-2.1,1.2-2.1,1.2l-0.1-0.6C16.8,6,16,6.2,14.8,6.2l0-0.7c2.8,0,2.9-1.6,3-2.8
	c0-0.5,0.1-0.9,0.2-1.3C18.3,0.6,19.4,0,19.4,0l0.3,0.6c0,0-0.9,0.5-1.1,1c-0.1,0.3-0.1,0.7-0.2,1.1C18.4,3.6,18.3,4.7,17.5,5.4
	L17.5,5.4z M7.9,3C6,3.4,4,3.9,2.1,4.6L1.8,4.7L1.8,5L2,6.1L2,6.5l0.3-0.1l14-2.5l0.4-0.1l-0.1-0.3l-0.2-1.2L16.5,2l-0.3,0
	c-1.8,0-3.5,0.1-5.3,0.4L11,1.8l0,0c0-0.4,0-0.7-0.1-1c-0.2-0.3-0.4-0.5-0.9-0.6l-0.1,0l-0.1,0L9,0.3v0L8.1,0.5L8,0.5L8,0.5
	C7.6,0.7,7.4,1,7.3,1.4c0,0.3,0,0.6,0.2,1l0,0L7.9,3L7.9,3z M8.2,2C8.1,1.8,8,1.6,8.1,1.5c0-0.1,0.1-0.2,0.2-0.3L9.1,1l0,0l0.8-0.2
	c0.2,0,0.3,0.1,0.3,0.2c0.1,0.1,0.1,0.3,0.1,0.6L10,3.1L8.9,3.3L8.2,2L8.2,2z"/>
</svg>
