<?xml version="1.0" encoding="utf-8"?>
<!-- Generator: Adobe Illustrator 21.0.0, SVG Export Plug-In . SVG Version: 6.00 Build 0)  -->
<svg version="1.1" id="Режим_изоляции"
	 xmlns="http://www.w3.org/2000/svg" xmlns:xlink="http://www.w3.org/1999/xlink" x="0px" y="0px" viewBox="0 0 78.7 107.1"
	 style="enable-background:new 0 0 78.7 107.1;" xml:space="preserve">
<style type="text/css">
</style>
<path class="st0" d="M77.7,0H7.2C3.2,0,0,3.2,0,7.2v82.4c0,0.1,0,0.1,0,0.2c0.3,4.1,3.8,7.3,7.9,7.3h42.7v10l7.1-5.4l7.1,5.4v-10
	h12.8c0.6,0,1-0.4,1-1v-6.5v-7.5V1C78.7,0.4,78.3,0,77.7,0z M2,7.2C2,4.3,4.3,2,7.2,2h69.5v79.1H8c-2.4,0-4.5,1.1-6,2.7V7.2z
	 M8,95.1c-3.3,0-6-2.7-6-6s2.7-6,6-6h42.7v12H8z M76.7,95.1H64.9v-12h11.8v6.5V95.1z"/>
<path class="st0" d="M39.5,61.6c-11.2,0-20.3-9.1-20.3-20.3S28.3,21,39.5,21s20.3,9.1,20.3,20.3S50.7,61.6,39.5,61.6z M39.5,22.5
	c-10.4,0-18.8,8.4-18.8,18.8c0,10.4,8.4,18.8,18.8,18.8c10.4,0,18.8-8.4,18.8-18.8C58.3,30.9,49.9,22.5,39.5,22.5z"/>
<path class="st0" d="M49.8,41.3c0,0.3-0.2,0.5-0.5,0.5h-9v9.5c0,0.3-0.2,0.5-0.5,0.5s-0.5-0.2-0.5-0.5v-9.5h-9.9
	c-0.3,0-0.5-0.2-0.5-0.5s0.2-0.5,0.5-0.5h9.9v-9.5c0-0.3,0.2-0.5,0.5-0.5s0.5,0.2,0.5,0.5v9.5h9C49.6,40.8,49.8,41,49.8,41.3z"/>
</svg>
