<?xml version="1.0" encoding="utf-8"?>
<!-- Generator: Adobe Illustrator 21.0.0, SVG Export Plug-In . SVG Version: 6.00 Build 0)  -->
<svg version="1.1" id="Слой_2" xmlns="http://www.w3.org/2000/svg" xmlns:xlink="http://www.w3.org/1999/xlink" x="0px" y="0px"
	 viewBox="0 0 33 45" style="enable-background:new 0 0 33 45;" xml:space="preserve">
<style type="text/css">
</style>
<path class="st0" d="M33,41.9c0,1.6-1.4,3.1-3,3.1H3c-1.6,0-3-1.5-3-3.1V5.2C0,2.3,1.7,0,5.2,0h25.4c1.3,0,1.9,0.6,1.9,1.5
	c0,0.8-0.7,1.4-1.9,1.4H4.9c-1.1,0-1.8,1-1.8,1.8c0,0.8,0.8,1.9,1.8,1.9H7v12.4l5-3.3l4.2,3.2V6.6h14.4c1.6,0,2.4,1.1,2.4,2.3
	C33,8.9,33,41.9,33,41.9z"/>
</svg>
