<?xml version="1.0" encoding="utf-8"?>
<!-- Generator: Adobe Illustrator 17.0.0, SVG Export Plug-In . SVG Version: 6.00 Build 0)  -->
<!DOCTYPE svg PUBLIC "-//W3C//DTD SVG 1.1//EN" "http://www.w3.org/Graphics/SVG/1.1/DTD/svg11.dtd">
<svg version="1.1" id="Слой_1" xmlns="http://www.w3.org/2000/svg" xmlns:xlink="http://www.w3.org/1999/xlink" x="0px" y="0px"
	 width="13.979px" height="11px" viewBox="0 0 13.979 11" enable-background="new 0 0 13.979 11" xml:space="preserve">
<path d="M12.851,0.984C11.927,0.173,10.971-0.079,9.991,0c-1.734,0.141-2.531,1.156-3,2L6.985,2.03l0-0.03
	c-0.469-0.844-1.266-1.859-3-2c-0.98-0.079-1.936,0.173-2.859,0.984C0.316,1.696-0.074,2.879,0,3.954
	c0.141,2.03,1.848,3.651,2.994,4.577C4.909,10.078,6.985,11,6.985,11c0.007-0.003,2.094-0.922,4.008-2.469
	c1.147-0.926,2.843-2.547,2.984-4.577C14.053,2.879,13.661,1.696,12.851,0.984z"/>
</svg>
