<svg id="fb.svg" xmlns="http://www.w3.org/2000/svg" width="7.844" height="17.219" viewBox="0 0 7.844 17.219">
  <defs>
    <style>
      .cls-1 {
        fill-rule: evenodd;
      }
    </style>
  </defs>
  <path id="fb" class="cls-1" d="M461.362,561.924c0-1.348,0-2.7,0-4.045,0-.228-0.061-0.3-0.282-0.29-0.408.017-.818,0-1.228,0.008a0.181,0.181,0,0,1-.224-0.223q0.012-1.263,0-2.525c0-.162.046-0.216,0.206-0.212,0.418,0.01.837-.012,1.255,0.009,0.242,0.012.292-.076,0.287-0.307-0.015-.641-0.015-1.283,0-1.922a3.767,3.767,0,0,1,.674-2.15,2.883,2.883,0,0,1,2.329-1.217c0.966-.043,1.934-0.02,2.9-0.03a0.147,0.147,0,0,1,.174.183q-0.006,1.278,0,2.554a0.157,0.157,0,0,1-.191.2c-0.465-.007-0.93,0-1.395,0a0.934,0.934,0,0,0-1.029.961c-0.031.5-.008,1.013-0.02,1.52,0,0.18.1,0.168,0.217,0.168,0.707,0,1.413.007,2.12-.006,0.208,0,.276.046,0.252,0.27-0.089.846-.165,1.694-0.235,2.542a0.212,0.212,0,0,1-.269.224c-0.557-.009-1.115-0.006-1.673,0-0.4,0-.362-0.059-0.362.361,0,2.64,0,5.28,0,7.92,0,0.278-.068.348-0.336,0.343q-1.435-.029-2.873,0c-0.271.007-.315-0.089-0.313-0.335C461.367,564.584,461.362,563.254,461.362,561.924Z" transform="translate(-459.625 -549.031)"/>
</svg>
