<?xml version="1.0" encoding="utf-8"?>
<!-- Generator: Adobe Illustrator 21.0.0, SVG Export Plug-In . SVG Version: 6.00 Build 0)  -->
<svg version="1.1" id="Layer_1" xmlns="http://www.w3.org/2000/svg" xmlns:xlink="http://www.w3.org/1999/xlink" x="0px" y="0px"
	 viewBox="0 0 15.8 18.6" style="enable-background:new 0 0 15.8 18.6;" xml:space="preserve">
<style type="text/css">
</style>
<path class="st0" d="M15.8,3.1v0.5H0V3.1c0-1.3,1-1.3,2.3-1.3h3.3V0.7C5.6,0.3,5.9,0,6.3,0h3.2c0.4,0,0.7,0.3,0.7,0.7v1.1h3.3
	C14.8,1.8,15.8,1.8,15.8,3.1z M1,4.8h13.8v11.5c0,1.3-1,2.3-2.3,2.3H3.3c-1.3,0-2.3-1-2.3-2.3V4.8z M11.8,16c0,0.3,0.2,0.5,0.5,0.5
	h0.2c0.3,0,0.5-0.2,0.5-0.5V7.4c0-0.3-0.2-0.5-0.5-0.5h-0.2c-0.3,0-0.5,0.2-0.5,0.5V16z M7.3,16c0,0.3,0.2,0.5,0.5,0.5H8
	c0.3,0,0.5-0.2,0.5-0.5V7.4c0-0.3-0.2-0.5-0.5-0.5H7.8c-0.3,0-0.5,0.2-0.5,0.5V16z M2.9,16c0,0.3,0.2,0.5,0.5,0.5h0.2
	C3.8,16.4,4,16.2,4,16V7.4c0-0.3-0.2-0.5-0.5-0.5H3.3c-0.3,0-0.5,0.2-0.5,0.5V16z"/>
</svg>
