<svg id="vk.svg" xmlns="http://www.w3.org/2000/svg" width="18" height="10.813" viewBox="0 0 18 10.813">
  <defs>
    <style>
      .cls-1 {
        fill-rule: evenodd;
      }
    </style>
  </defs>
  <path id="vk" class="cls-1" d="M469.961,597.829s2.374-3.438,2.61-4.567a0.461,0.461,0,0,0-.5-0.63h-2.059a0.753,0.753,0,0,0-.787.517,19.212,19.212,0,0,1-2.468,3.969,1.341,1.341,0,0,1-.9.646c-0.194,0-.283-0.166-0.283-0.613v-3.922c0-.548-0.063-0.71-0.5-0.71h-3.3a0.365,0.365,0,0,0-.409.356c0,0.515.771,0.632,0.771,2.033V597.8c0,0.582-.032.808-0.3,0.808-0.707,0-2.39-2.5-3.333-5.342a0.827,0.827,0,0,0-.927-0.743h-2.06a0.5,0.5,0,0,0-.519.517c0,0.565.645,3.179,3.176,6.681,1.7,2.356,3.93,3.631,5.943,3.631,1.226,0,1.525-.21,1.525-0.743V600.8c0-.451.173-0.645,0.424-0.645,0.283,0,.783.093,1.95,1.274,1.383,1.356,1.478,1.921,2.232,1.921h2.312a0.434,0.434,0,0,0,.455-0.517c0-.533-0.676-1.484-1.713-2.614-0.425-.58-1.117-1.211-1.337-1.5A0.592,0.592,0,0,1,469.961,597.829Z" transform="translate(-455 -592.531)"/>
</svg>
