<?xml version="1.0" encoding="utf-8"?>
<!-- Generator: Adobe Illustrator 21.0.0, SVG Export Plug-In . SVG Version: 6.00 Build 0)  -->
<svg version="1.1" id="Layer_1" xmlns="http://www.w3.org/2000/svg" xmlns:xlink="http://www.w3.org/1999/xlink" x="0px" y="0px"
	 viewBox="0 0 44.4 37.8" style="enable-background:new 0 0 44.4 37.8;" xml:space="preserve">
<style type="text/css">
</style>
<path class="st0" d="M25.5,8.5V2.6c0-0.4,0.3-0.8,0.8-0.8S27,2.2,27,2.6v5.8c0,0.4-0.3,0.8-0.8,0.8S25.5,8.9,25.5,8.5z M22.2,9.2
	c0.4,0,0.8-0.3,0.8-0.8V0.8c0-0.4-0.3-0.8-0.8-0.8s-0.8,0.3-0.8,0.8v7.7C21.4,8.9,21.8,9.2,22.2,9.2z M18.1,9.2
	c0.4,0,0.8-0.3,0.8-0.8V4.6c0-0.4-0.3-0.8-0.8-0.8s-0.8,0.3-0.8,0.8v3.8C17.4,8.9,17.7,9.2,18.1,9.2z M44.3,18.7
	c-0.2,0.3-0.7,0.4-1,0.2c0,0-1.6-1-3-0.6c-0.9,0.3-1.6,1.1-2,2.5c0,0,0,0,0,0V24c0,5.8-4.9,10.4-10.9,10.4H17.1
	c-6,0-10.9-4.7-10.9-10.4v-3.2c0,0,0,0,0,0c-0.4-1.3-1.1-2.2-2-2.5c-1.4-0.5-3,0.5-3,0.6c-0.3,0.2-0.8,0.1-1-0.2
	c-0.2-0.3-0.1-0.8,0.2-1c0.2-0.2,2.2-1.5,4.3-0.7c0.6,0.2,1.1,0.5,1.5,1v-3.5H3.8c-0.4,0-0.8-0.3-0.8-0.8s0.3-0.8,0.8-0.8h3.1h30.5
	h3.1c0.4,0,0.8,0.3,0.8,0.8s-0.3,0.8-0.8,0.8h-2.4v3.5c0.4-0.4,0.9-0.8,1.5-1c2.2-0.7,4.2,0.7,4.3,0.7
	C44.4,17.8,44.5,18.3,44.3,18.7z M36.7,14.4h-29V24c0,4.9,4.2,8.9,9.4,8.9h10.3c5.2,0,9.4-4,9.4-8.9V14.4z M38.4,36.3H6
	c-0.4,0-0.8,0.3-0.8,0.8s0.3,0.8,0.8,0.8h32.3c0.4,0,0.8-0.3,0.8-0.8S38.8,36.3,38.4,36.3z"/>
</svg>
