<?xml version="1.0" encoding="utf-8"?>
<!-- Generator: Adobe Illustrator 17.0.0, SVG Export Plug-In . SVG Version: 6.00 Build 0)  -->
<!DOCTYPE svg PUBLIC "-//W3C//DTD SVG 1.1//EN" "http://www.w3.org/Graphics/SVG/1.1/DTD/svg11.dtd">
<svg version="1.1" id="Режим_изоляции"
	 xmlns="http://www.w3.org/2000/svg" xmlns:xlink="http://www.w3.org/1999/xlink" x="0px" y="0px" width="24px" height="24px"
	 viewBox="0 0 24 24" enable-background="new 0 0 24 24" xml:space="preserve">
<path d="M2,22.5c-0.128,0-0.256-0.049-0.354-0.146c-0.195-0.195-0.195-0.512,0-0.707l20-20c0.195-0.195,0.512-0.195,0.707,0
	s0.195,0.512,0,0.707l-20,20C2.256,22.451,2.128,22.5,2,22.5z"/>
<path d="M22,22.5c-0.128,0-0.256-0.049-0.354-0.146l-20-20c-0.195-0.195-0.195-0.512,0-0.707s0.512-0.195,0.707,0l20,20
	c0.195,0.195,0.195,0.512,0,0.707C22.256,22.451,22.128,22.5,22,22.5z"/>
</svg>
