<?xml version="1.0" encoding="utf-8"?>
<!-- Generator: Adobe Illustrator 21.0.0, SVG Export Plug-In . SVG Version: 6.00 Build 0)  -->
<svg version="1.1" id="Symbol" xmlns="http://www.w3.org/2000/svg" xmlns:xlink="http://www.w3.org/1999/xlink" x="0px" y="0px"
	 viewBox="0 0 21.7 26.5" style="enable-background:new 0 0 21.7 26.5;" xml:space="preserve">
<style type="text/css">
</style>
<path class="st0" d="M19.3,1.9c0.6,0.3,1,0.8,1.5,1.2c0.1-0.1,0.1-0.1,0.2-0.2c0.5-0.9,0.2-2.1-0.7-2.7C19.2-0.3,18,0,17.5,1
	c0,0.1-0.1,0.2-0.1,0.2C18,1.3,18.6,1.6,19.3,1.9L19.3,1.9L19.3,1.9z M0.7,17.2c0.5,0.4,14.1,8.2,14.7,8.4c1.6,0.6,2.3-0.8,2-1.8
	c-0.4-4,1.8-9.4,3.5-12.4c1.7-3,0.7-6.8-2.2-8.6c-3-1.6-6.8-0.6-8.5,2.4c-1.7,3-5.2,7.6-8.9,9.2C0.2,14.9-0.6,16.2,0.7,17.2z
	 M7.4,22.5c1.8,1,3.8,2.2,5.3,3c-1.1,1-2.8,1.3-4.2,0.5c-1.4-0.8-2-2.4-1.7-3.8C7,22.3,7.2,22.4,7.4,22.5z"/>
</svg>
