<?xml version="1.0" encoding="utf-8"?>
<!-- Generator: Adobe Illustrator 17.0.0, SVG Export Plug-In . SVG Version: 6.00 Build 0)  -->
<!DOCTYPE svg PUBLIC "-//W3C//DTD SVG 1.1//EN" "http://www.w3.org/Graphics/SVG/1.1/DTD/svg11.dtd">
<svg version="1.1" id="Слой_1" xmlns="http://www.w3.org/2000/svg" xmlns:xlink="http://www.w3.org/1999/xlink" x="0px" y="0px"
	 width="34px" height="34px" viewBox="0 0 34 34" enable-background="new 0 0 34 34" xml:space="preserve">
<path fill-rule="evenodd" clip-rule="evenodd" fill="#343434" d="M16.9,32.811c-8.892,0-16.1-7.119-16.1-15.899
	c0-8.782,7.208-15.9,16.1-15.9c8.891,0,16.1,7.118,16.1,15.9C33,25.693,25.792,32.811,16.9,32.811z M16.815,6.902
	c-2.82,0-5.106,2.255-5.106,5.038c0,2.783,2.286,5.039,5.106,5.039c2.82,0,5.106-2.256,5.106-5.039
	C21.922,9.157,19.635,6.902,16.815,6.902z M22.701,17.594c-0.288-0.571-1.087-1.047-2.148-0.222
	c-1.434,1.115-3.738,1.115-3.738,1.115s-2.304,0-3.738-1.115c-1.061-0.825-1.86-0.35-2.148,0.222
	c-0.503,0.996,0.065,1.478,1.347,2.289c1.095,0.693,2.598,0.952,3.57,1.049l-0.811,0.8c-1.142,1.127-2.244,2.215-3.009,2.969
	c-0.457,0.451-0.457,1.182,0,1.634l0.138,0.136c0.457,0.452,1.199,0.452,1.656,0l3.009-2.969c1.142,1.127,2.244,2.215,3.009,2.969
	c0.457,0.452,1.199,0.452,1.656,0l0.138-0.136c0.457-0.452,0.457-1.183,0-1.634l-3.009-2.969l-0.813-0.802
	c0.972-0.099,2.46-0.359,3.545-1.047C22.636,19.071,23.204,18.59,22.701,17.594z M16.815,14.419c-1.387,0-2.512-1.11-2.512-2.479
	s1.125-2.479,2.512-2.479c1.387,0,2.512,1.11,2.512,2.479S18.203,14.419,16.815,14.419z"/>
</svg>
