<?xml version="1.0" encoding="utf-8"?>
<!-- Generator: Adobe Illustrator 21.0.0, SVG Export Plug-In . SVG Version: 6.00 Build 0)  -->
<svg version="1.1" id="Режим_изоляции"
	 xmlns="http://www.w3.org/2000/svg" xmlns:xlink="http://www.w3.org/1999/xlink" x="0px" y="0px" viewBox="0 0 17.6 17.9"
	 style="enable-background:new 0 0 17.6 17.9;" xml:space="preserve">
<path d="M16.2,9h-0.6c-0.3,0-0.5,0.2-0.5,0.5v0.6c0,0.2-0.2,0.4-0.4,0.4H2.9c-0.2,0-0.4-0.2-0.4-0.4V9.5C2.5,9.2,2.3,9,2,9H1.4
	C0.6,9,0,9.6,0,10.4v5c0,0.8,0.6,1.4,1.4,1.4H2c0.3,0,0.5-0.2,0.5-0.5v-0.1c0-0.1,0-0.2,0.1-0.3v0.5c0,0.8,0.7,1.5,1.5,1.5h9.4
	c0.8,0,1.5-0.7,1.5-1.5v-0.5c0,0.1,0.1,0.1,0.1,0.2v0.1c0,0.3,0.2,0.5,0.5,0.5h0.6c0.8,0,1.4-0.6,1.4-1.4v-5C17.6,9.6,16.9,9,16.2,9
	z M14,16.4c0,0.3-0.2,0.5-0.5,0.5H4.1c-0.3,0-0.5-0.2-0.5-0.5v-0.7H14c0,0.1,0,0.1,0,0.2V16.4z M16.6,15.4c0,0.2-0.2,0.4-0.4,0.4H16
	c-0.2-0.6-0.7-1-1.4-1H2.9c-0.6,0-1.2,0.4-1.4,1H1.4c-0.2,0-0.4-0.2-0.4-0.4v-5C1,10.1,1.2,10,1.4,10h0.1v0.1c0,0.8,0.6,1.4,1.4,1.4
	h11.8c0.8,0,1.4-0.6,1.4-1.4V10h0.1c0.2,0,0.4,0.2,0.4,0.4V15.4z M3.1,9.6c0.3,0,0.5-0.2,0.5-0.5V1.5C3.6,1.2,3.8,1,4.1,1h6.1
	c0,0,0,0.1,0,0.1v3.2c0,0.3,0.2,0.5,0.5,0.5h3.2c0,0,0.1,0,0.1,0v4.3c0,0.3,0.2,0.5,0.5,0.5S15,9.4,15,9.1V4.8
	c0-0.7-0.4-1.6-0.9-2.1l-1.8-1.8C11.8,0.4,10.9,0,10.2,0H4.1C3.3,0,2.6,0.7,2.6,1.5v7.6C2.6,9.4,2.8,9.6,3.1,9.6z M11.2,1.3
	c0.2,0.1,0.3,0.2,0.4,0.3l1.8,1.8c0.1,0.1,0.2,0.2,0.3,0.4h-2.5V1.3z M13.5,13c0,0.3-0.3,0.6-0.6,0.6s-0.6-0.3-0.6-0.6
	s0.3-0.6,0.6-0.6S13.5,12.7,13.5,13z M15.5,13c0,0.3-0.3,0.6-0.6,0.6s-0.6-0.3-0.6-0.6s0.3-0.6,0.6-0.6S15.5,12.7,15.5,13z"/>
</svg>
