<svg id="ok.svg" xmlns="http://www.w3.org/2000/svg" width="10.563" height="18.031" viewBox="0 0 10.563 18.031">
  <defs>
    <style>
      .cls-1 {
        fill-rule: evenodd;
      }
    </style>
  </defs>
  <path id="ok" class="cls-1" d="M463.835,634.092a4.569,4.569,0,1,0-4.444-4.567A4.507,4.507,0,0,0,463.835,634.092Zm0-6.815a2.248,2.248,0,1,1-2.186,2.248A2.218,2.218,0,0,1,463.835,627.277Zm5.124,7.372a1.114,1.114,0,0,0-1.87-.2,5.741,5.741,0,0,1-6.507,0,1.114,1.114,0,0,0-1.87.2c-0.438.9,0.057,1.34,1.172,2.076a7.311,7.311,0,0,0,3.107.951l-0.7.725-2.62,2.692a1.07,1.07,0,0,0,0,1.481l0.121,0.123a1,1,0,0,0,1.441,0l2.619-2.691,2.619,2.691a1,1,0,0,0,1.441,0l0.121-.123a1.068,1.068,0,0,0,0-1.481l-2.619-2.692-0.708-.727a7.291,7.291,0,0,0,3.085-.949C468.9,635.989,469.4,635.553,468.959,634.649Z" transform="translate(-458.562 -624.969)"/>
</svg>
