<?xml version="1.0" encoding="utf-8"?>
<!-- Generator: Adobe Illustrator 21.0.0, SVG Export Plug-In . SVG Version: 6.00 Build 0)  -->
<svg version="1.1" id="Layer_1" xmlns="http://www.w3.org/2000/svg" xmlns:xlink="http://www.w3.org/1999/xlink" x="0px" y="0px"
	 viewBox="0 0 28 38.4" style="enable-background:new 0 0 28 38.4;" xml:space="preserve">
<style type="text/css">
</style>
<path class="st0" d="M24.2,14.8l1.3-1.3l0.8,0.8c0.1,0.1,0.3,0.2,0.5,0.2s0.4-0.1,0.5-0.2c0.3-0.3,0.3-0.8,0-1.1l-2.6-2.6
	c-0.3-0.3-0.8-0.3-1.1,0s-0.3,0.8,0,1.1l0.8,0.8l-1.3,1.3c-1.6-1.4-3.6-2.4-5.7-2.9c1.5-1.1,2.5-2.9,2.5-4.9C19.9,2.7,17.2,0,14,0
	S8,2.7,8,5.9c0,2,1,3.8,2.6,4.9C4.5,12.3,0,17.8,0,24.4c0,7.7,6.3,14,14,14s14-6.3,14-14C28,20.7,26.6,17.3,24.2,14.8z M9.5,5.9
	c0-2.4,2-4.4,4.4-4.4s4.4,2,4.4,4.4c0,2.2-1.6,4-3.7,4.4V8.1h1.1c0.4,0,0.8-0.3,0.8-0.8s-0.3-0.8-0.8-0.8h-3.7
	c-0.4,0-0.8,0.3-0.8,0.8s0.3,0.8,0.8,0.8h1.1v2.2C11.1,9.9,9.5,8.1,9.5,5.9z M14,36.9c-6.9,0-12.5-5.6-12.5-12.5S7.1,11.9,14,11.9
	s12.5,5.6,12.5,12.5S20.9,36.9,14,36.9z M15.9,24.4c0,1-0.8,1.9-1.9,1.9s-1.9-0.8-1.9-1.9c0-0.8,0.5-1.4,1.1-1.7v-8.4
	c0-0.4,0.3-0.8,0.8-0.8s0.8,0.3,0.8,0.8v8.3C15.4,22.9,15.9,23.6,15.9,24.4z"/>
</svg>
