<?xml version="1.0" encoding="utf-8"?>
<!-- Generator: Adobe Illustrator 21.0.2, SVG Export Plug-In . SVG Version: 6.00 Build 0)  -->
<svg version="1.1" id="Layer_1" xmlns="http://www.w3.org/2000/svg" xmlns:xlink="http://www.w3.org/1999/xlink" x="0px" y="0px"
	 viewBox="0 0 16.4 21" style="enable-background:new 0 0 16.4 21;" xml:space="preserve">
<style type="text/css">
	.st0{fill-rule:evenodd;clip-rule:evenodd;}
</style>
<path class="st0" d="M13,14.8l1.5,5.8l-1,0.3L12,15.4c-0.8,0.4-1.8,0.7-3,0.8V21H7.9v-4.8c-1.2-0.1-2.2-0.3-3.1-0.6l-1.3,5.3l-1-0.3
	l1.4-5.5C3.4,14.7,3,14.4,2.7,14c-1.1-1.3-1.5-3-1.7-4.8L0.9,8.6h0.6h13.4h0.6l-0.1,0.6c-0.2,1.8-0.6,3.6-1.7,4.9
	C13.5,14.3,13.2,14.6,13,14.8L13,14.8z M10.2,4.7C9.5,3.4,10,2.7,10.4,2c0.3-0.4,0.6-0.9,0.1-1.6L11.1,0c0.8,1.2,0.4,1.8-0.1,2.5
	c-0.3,0.5-0.7,1-0.2,2L10.2,4.7L10.2,4.7z M6.3,4.7C5.6,3.4,6.1,2.7,6.5,2h0c0.3-0.4,0.6-0.9,0.1-1.6L7.2,0C8,1.2,7.6,1.8,7.1,2.5
	l0,0c-0.3,0.5-0.7,1-0.2,2L6.3,4.7L6.3,4.7z M8.3,4.7l0.6-0.3c-0.5-1-0.2-1.5,0.2-2l0,0C9.6,1.8,10,1.2,9.2,0L8.6,0.4
	C9.1,1.2,8.8,1.6,8.5,2h0C8.1,2.7,7.6,3.4,8.3,4.7L8.3,4.7z M0,6h16.4v1.1H0V6L0,6z"/>
</svg>
