<?xml version="1.0" encoding="utf-8"?>
<!-- Generator: Adobe Illustrator 17.0.0, SVG Export Plug-In . SVG Version: 6.00 Build 0)  -->
<!DOCTYPE svg PUBLIC "-//W3C//DTD SVG 1.1//EN" "http://www.w3.org/Graphics/SVG/1.1/DTD/svg11.dtd">
<svg version="1.1" id="biz_x5F_line" xmlns="http://www.w3.org/2000/svg" xmlns:xlink="http://www.w3.org/1999/xlink" x="0px"
	 y="0px" width="23px" height="18px" viewBox="0 0 23 18" enable-background="new 0 0 23 18" xml:space="preserve">
<path fill="#828282" d="M20.5,18h-18C1.215,18,0,16.785,0,15.5v-13C0,1.215,1.215,0,2.5,0h18C21.742,0.02,23,1.281,23,2.5v13.269
	C23,16.752,21.823,18,20.5,18z M1.945,16.862C2.124,16.949,2.313,17,2.5,17h18c0.213,0,0.428-0.065,0.625-0.168L13.59,9.297
	l-2.091,1.876l-2.08-1.879L1.945,16.862z M1.186,1.854C1.069,2.059,1,2.281,1,2.5v13c0,0.232,0.079,0.47,0.209,0.685l7.468-7.563
	L1.186,1.854z M14.335,8.628l7.529,7.529C21.95,16.018,22,15.882,22,15.769V2.5c0-0.19-0.068-0.395-0.183-0.589L14.335,8.628z
	 M1.906,1.158l9.595,8.669l9.611-8.626C20.909,1.079,20.693,1.003,20.492,1H2.5C2.3,1,2.096,1.059,1.906,1.158z"/>
</svg>
