<?xml version="1.0" encoding="utf-8"?>
<!-- Generator: Adobe Illustrator 21.0.2, SVG Export Plug-In . SVG Version: 6.00 Build 0)  -->
<svg version="1.1" id="Режим_изоляции"
	 xmlns="http://www.w3.org/2000/svg" xmlns:xlink="http://www.w3.org/1999/xlink" x="0px" y="0px" viewBox="0 0 19.8 13.8"
	 style="enable-background:new 0 0 19.8 13.8;" xml:space="preserve">
<style type="text/css">
	.st0{fill-rule:evenodd;clip-rule:evenodd;}
</style>
<path class="st0" d="M11.6,2.4c2.5,0.3,4.3,1.3,5.4,2.7c1.4,1.7,2,4,2.2,6.4l0.1,0.6h-0.6H1.2H0.6l0.1-0.6c0.2-2.3,0.8-4.6,2.2-6.2
	c1.2-1.4,2.9-2.4,5.5-2.8L8.1,1.9l0,0C8,1.5,8,1.1,8.1,0.8C8.2,0.4,8.4,0.2,8.9,0l0.1,0L9,0l1,0l1,0L11,0l0.1,0
	c0.4,0.2,0.7,0.4,0.8,0.8c0.1,0.3,0.1,0.7,0,1.1l0,0L11.6,2.4L11.6,2.4z M0,12.8h19.8v1H0V12.8L0,12.8z M8.8,1.7l0.6,1.5h1.3
	l0.6-1.5l0,0c0.1-0.3,0.1-0.5,0-0.7c0-0.1-0.2-0.2-0.3-0.3l-0.9,0h0l-0.9,0C8.9,0.8,8.8,0.9,8.7,1C8.7,1.2,8.7,1.4,8.8,1.7L8.8,1.7z
	"/>
</svg>
