<?xml version="1.0" encoding="utf-8"?>
<!-- Generator: Adobe Illustrator 21.0.2, SVG Export Plug-In . SVG Version: 6.00 Build 0)  -->
<svg version="1.1" id="Слой_1" xmlns="http://www.w3.org/2000/svg" xmlns:xlink="http://www.w3.org/1999/xlink" x="0px" y="0px"
	 viewBox="0 0 14 11" style="enable-background:new 0 0 14 11;" xml:space="preserve">
<path d="M10.4,1c0.6,0,1.2,0.2,1.9,0.8c0.5,0.5,0.8,1.3,0.8,2.1c-0.1,1.2-1,2.5-2.6,3.8C9.1,8.8,7.7,9.6,7,9.9
	C6.3,9.6,4.9,8.8,3.6,7.8C3,7.4,1.1,5.8,1,3.9C0.9,3.1,1.2,2.2,1.8,1.7C2.3,1.2,3,1,3.6,1c0.1,0,0.2,0,0.3,0C5,1.1,5.6,1.6,6.2,2.5
	L7,3.9l0.8-1.4C8.4,1.6,9,1.1,10.1,1C10.2,1,10.3,1,10.4,1 M10.4,0c-0.1,0-0.2,0-0.4,0C8.3,0.1,7.5,1.2,7,2C6.5,1.2,5.7,0.1,4,0
	C3.9,0,3.8,0,3.6,0C2.8,0,1.9,0.3,1.1,1C0.3,1.7-0.1,2.9,0,4c0.1,2,1.8,3.7,3,4.6C4.9,10.1,7,11,7,11s2.1-0.9,4-2.5
	C12.1,7.6,13.8,6,14,4c0.1-1.1-0.3-2.3-1.1-3C12,0.3,11.2,0,10.4,0L10.4,0z"/>
</svg>
