<?xml version="1.0" encoding="utf-8"?>
<!-- Generator: Adobe Illustrator 21.0.2, SVG Export Plug-In . SVG Version: 6.00 Build 0)  -->
<svg version="1.1" id="FOOD_1" xmlns="http://www.w3.org/2000/svg" xmlns:xlink="http://www.w3.org/1999/xlink" x="0px" y="0px"
	 viewBox="0 0 20.4 30.3" style="enable-background:new 0 0 20.4 30.3;" xml:space="preserve">
<style type="text/css">
	.st0{fill-rule:evenodd;clip-rule:evenodd;}
</style>
<path class="st0" d="M11.5,19.2c0,0,0.1,0,0.1,0c4.9-1,8.7-4.9,8.7-11.8c0-0.2,0-0.7,0-0.7c-0.1-2.1-0.5-4.2-1.3-6
	C18.9,0.3,18.4,0,18,0H2.4C1.9,0,1.5,0.3,1.3,0.7C0.6,2.5,0.1,4.6,0,6.7c0,0,0,0.5,0,0.7c0,6.9,3.8,10.7,8.7,11.8c0.1,0,0.1,0,0.2,0
	l0.3,0V27c-2.9,0.3-5.1,1.6-5.1,3.3h12.2c0-1.7-2.2-3-5.1-3.3v-7.9L11.5,19.2z M8.5,16.6c-0.2,0-0.4,0-0.6-0.1
	c-3-1.2-5.5-4.2-5.7-8.9c-0.1-1.5,0.5-4.3,1-5.3h14c0.4,1,0.6,2.1,0.7,3.2H4.3C4.1,6.1,4,6.8,4.1,7.5c0.2,4.7,2.6,6.4,4.5,7.4
	c0.5,0.2,0.9,0.8,0.6,1.2C9,16.5,8.8,16.6,8.5,16.6z"/>
</svg>
