<?xml version="1.0" encoding="utf-8"?>
<!-- Generator: Adobe Illustrator 17.0.0, SVG Export Plug-In . SVG Version: 6.00 Build 0)  -->
<!DOCTYPE svg PUBLIC "-//W3C//DTD SVG 1.1//EN" "http://www.w3.org/Graphics/SVG/1.1/DTD/svg11.dtd">
<svg version="1.1" id="Слой_1" xmlns="http://www.w3.org/2000/svg" xmlns:xlink="http://www.w3.org/1999/xlink" x="0px" y="0px"
	 width="34px" height="34px" viewBox="0 0 34 34" enable-background="new 0 0 34 34" xml:space="preserve">
<path fill-rule="evenodd" clip-rule="evenodd" fill="#343434" d="M17.013,32.8c-8.892,0-16.1-7.119-16.1-15.899
	c0-8.782,7.208-15.9,16.1-15.9c8.891,0,16.1,7.118,16.1,15.9C33.112,25.681,25.904,32.8,17.013,32.8z M21.493,7.665
	c0.001-0.149-0.045-0.204-0.2-0.202c-1.111,0.012-2.223-0.015-3.333,0.033c-1.08,0.048-2.017,0.454-2.676,1.343
	c-0.521,0.702-0.755,1.508-0.774,2.37c-0.016,0.707-0.016,1.414,0.001,2.121c0.006,0.255-0.052,0.352-0.33,0.339
	c-0.48-0.023-0.962,0.001-1.442-0.01c-0.183-0.004-0.237,0.055-0.236,0.233c0.008,0.929,0.008,1.857-0.001,2.786
	c-0.002,0.199,0.068,0.251,0.258,0.247c0.47-0.01,0.941,0.01,1.41-0.008c0.254-0.011,0.326,0.068,0.324,0.319
	c-0.011,1.488-0.005,2.976-0.005,4.463c0,1.467,0.006,2.934-0.006,4.401c-0.002,0.273,0.049,0.377,0.359,0.371
	c1.1-0.021,2.201-0.021,3.301,0c0.308,0.006,0.388-0.072,0.386-0.379c-0.013-2.913-0.009-5.825-0.007-8.737
	c0-0.464-0.045-0.394,0.416-0.398c0.641-0.004,1.282-0.007,1.923,0.003c0.192,0.003,0.29-0.037,0.308-0.248
	c0.081-0.935,0.169-1.87,0.271-2.803c0.027-0.248-0.051-0.302-0.29-0.298c-0.812,0.014-1.624,0.005-2.436,0.005
	c-0.133,0-0.253,0.014-0.249-0.185c0.013-0.559-0.013-1.12,0.023-1.677c0.044-0.696,0.47-1.057,1.181-1.059
	c0.534-0.002,1.068-0.005,1.603,0.003c0.166,0.003,0.221-0.048,0.22-0.215C21.487,9.543,21.488,8.604,21.493,7.665z"/>
</svg>
