<?xml version="1.0" encoding="utf-8"?>
<!-- Generator: Adobe Illustrator 17.0.0, SVG Export Plug-In . SVG Version: 6.00 Build 0)  -->
<!DOCTYPE svg PUBLIC "-//W3C//DTD SVG 1.1//EN" "http://www.w3.org/Graphics/SVG/1.1/DTD/svg11.dtd">
<svg version="1.1" id="Слой_1" xmlns="http://www.w3.org/2000/svg" xmlns:xlink="http://www.w3.org/1999/xlink" x="0px" y="0px"
	 width="34px" height="34px" viewBox="0 0 34 34" enable-background="new 0 0 34 34" xml:space="preserve">
<path fill-rule="evenodd" clip-rule="evenodd" fill="#343434" d="M17.1,33C8.208,33,1,25.881,1,17.1C1,8.319,8.208,1.201,17.1,1.201
	c8.892,0,16.1,7.118,16.1,15.899C33.2,25.881,25.991,33,17.1,33z M25.703,13.44c0-2.666-2.197-4.836-4.898-4.836h-7.412
	c-2.701,0-4.898,2.17-4.898,4.836v7.321c0,2.667,2.197,4.837,4.898,4.837h7.412c2.701,0,4.898-2.17,4.898-4.837V13.44z
	 M20.806,24.141h-7.412c-1.887,0-3.423-1.516-3.423-3.38V13.44c0-1.863,1.535-3.379,3.423-3.379h7.412
	c1.887,0,3.423,1.517,3.423,3.379v7.321C24.228,22.625,22.693,24.141,20.806,24.141z M17.1,12.749c-2.429,0-4.406,1.952-4.406,4.351
	c0,2.4,1.976,4.351,4.406,4.351c2.429,0,4.406-1.951,4.406-4.351C21.506,14.702,19.529,12.749,17.1,12.749z M21.695,11.455
	c-0.585,0-1.059,0.468-1.059,1.045c0,0.578,0.474,1.045,1.059,1.045c0.585,0,1.059-0.468,1.059-1.045
	C22.753,11.923,22.279,11.455,21.695,11.455z M17.1,19.995c-1.616,0-2.931-1.299-2.931-2.895c0-1.596,1.315-2.894,2.931-2.894
	c1.616,0,2.931,1.298,2.931,2.894C20.031,18.696,18.716,19.995,17.1,19.995z"/>
</svg>
