<?xml version="1.0" encoding="utf-8"?>
<!-- Generator: Adobe Illustrator 17.0.0, SVG Export Plug-In . SVG Version: 6.00 Build 0)  -->
<!DOCTYPE svg PUBLIC "-//W3C//DTD SVG 1.1//EN" "http://www.w3.org/Graphics/SVG/1.1/DTD/svg11.dtd">
<svg version="1.1" id="Слой_1" xmlns="http://www.w3.org/2000/svg" xmlns:xlink="http://www.w3.org/1999/xlink" x="0px" y="0px"
	 width="34px" height="33px" viewBox="0 0 34 33" enable-background="new 0 0 34 33" xml:space="preserve">
<path fill-rule="evenodd" clip-rule="evenodd" fill="#343434" d="M16.984,32.749c-8.892,0-16.1-7.119-16.1-15.899
	c0-8.782,7.208-15.9,16.1-15.9c8.892,0,16.1,7.118,16.1,15.9C33.083,25.63,25.875,32.749,16.984,32.749z M23.312,17.501
	c0,0,2.727-3.792,2.998-5.038c0.09-0.445-0.108-0.694-0.578-0.694c0,0-1.571,0-2.366,0c-0.542,0-0.741,0.231-0.903,0.57
	c0,0-1.279,2.687-2.836,4.38c-0.5,0.548-0.754,0.712-1.03,0.712c-0.223,0-0.325-0.183-0.325-0.677v-4.326
	c0-0.605-0.072-0.783-0.578-0.783h-3.793c-0.289,0-0.47,0.166-0.47,0.392c0,0.569,0.885,0.698,0.885,2.243v3.186
	c0,0.641-0.036,0.891-0.343,0.891c-0.813,0-2.745-2.76-3.829-5.893c-0.217-0.64-0.452-0.819-1.066-0.819H6.712
	c-0.343,0-0.596,0.232-0.596,0.57c0,0.623,0.74,3.507,3.649,7.37c1.951,2.599,4.515,4.006,6.827,4.006
	c1.409,0,1.752-0.232,1.752-0.819v-1.994c0-0.499,0.199-0.712,0.488-0.712c0.325,0,0.899,0.102,2.24,1.406
	c1.59,1.496,1.698,2.119,2.565,2.119h2.655c0.271,0,0.524-0.125,0.524-0.57c0-0.588-0.777-1.638-1.969-2.884
	c-0.488-0.641-1.282-1.335-1.535-1.655C22.95,18.106,23.059,17.892,23.312,17.501z"/>
</svg>
