<?xml version="1.0" encoding="utf-8"?>
<!-- Generator: Adobe Illustrator 17.0.0, SVG Export Plug-In . SVG Version: 6.00 Build 0)  -->
<!DOCTYPE svg PUBLIC "-//W3C//DTD SVG 1.1//EN" "http://www.w3.org/Graphics/SVG/1.1/DTD/svg11.dtd">
<svg version="1.1" id="Слой_1" xmlns="http://www.w3.org/2000/svg" xmlns:xlink="http://www.w3.org/1999/xlink" x="0px" y="0px"
	 width="23px" height="23px" viewBox="0 0 23 23" enable-background="new 0 0 23 23" xml:space="preserve">
<path fill="#6E6E6D" d="M21.47,21.431l-7.348-7.348c1.379-1.34,2.239-3.211,2.239-5.281c0-4.065-3.307-7.373-7.372-7.373
	S1.616,4.736,1.616,8.802s3.308,7.373,7.373,7.373c1.635,0,3.141-0.541,4.365-1.445l7.408,7.408L21.47,21.431z M2.616,8.802
	c0-3.514,2.859-6.373,6.373-6.373s6.372,2.859,6.372,6.373c0,3.514-2.858,6.373-6.372,6.373S2.616,12.315,2.616,8.802z"/>
</svg>
