<?xml version="1.0" encoding="utf-8"?>
<!-- Generator: Adobe Illustrator 17.0.0, SVG Export Plug-In . SVG Version: 6.00 Build 0)  -->
<!DOCTYPE svg PUBLIC "-//W3C//DTD SVG 1.1//EN" "http://www.w3.org/Graphics/SVG/1.1/DTD/svg11.dtd">
<svg version="1.1" id="Слой_1" xmlns="http://www.w3.org/2000/svg" xmlns:xlink="http://www.w3.org/1999/xlink" x="0px" y="0px"
	 width="20px" height="11px" viewBox="0 0 20 11" enable-background="new 0 0 20 11" xml:space="preserve">
<path d="M19.777,4.932C18.418,3.526,14.554,0,10,0C5.446,0,1.582,3.526,0.223,4.932c-0.297,0.307-0.297,0.829,0,1.136
	C1.582,7.474,5.446,11,10,11c4.554,0,8.418-3.526,9.777-4.932C20.074,5.761,20.074,5.239,19.777,4.932z M10,9.414
	c-2.206,0-4-1.794-4-4c0-2.206,1.795-4,4-4c2.206,0,4,1.795,4,4C14,7.62,12.206,9.414,10,9.414z M10,3.914
	c-0.827,0-1.5,0.673-1.5,1.5c0,0.827,0.673,1.5,1.5,1.5c0.827,0,1.5-0.673,1.5-1.5C11.5,4.587,10.827,3.914,10,3.914z"/>
</svg>
