<svg id="vk_2.svg" data-name="vk 2.svg" xmlns="http://www.w3.org/2000/svg" width="40.906" height="41" viewBox="0 0 40.906 41">
  <defs>
    <style>
      .cls-1 {
        fill-opacity: 0;
        stroke: #202021;
        stroke-linejoin: round;
        stroke-width: 1px;
      }

      .cls-2 {
        fill-rule: evenodd;
      }
    </style>
  </defs>
  <circle id="Rectangle_46_copy_18" data-name="Rectangle 46 copy 18" class="cls-1" cx="20.453" cy="20.5" r="19.953"/>
  <path id="vk" class="cls-2" d="M252.747,333.829s2.368-3.438,2.6-4.567a0.46,0.46,0,0,0-.5-0.63h-2.055a0.75,0.75,0,0,0-.784.517,19.255,19.255,0,0,1-2.463,3.97,1.338,1.338,0,0,1-.894.645c-0.193,0-.282-0.166-0.282-0.613v-3.922c0-.548-0.063-0.71-0.5-0.71h-3.294a0.365,0.365,0,0,0-.408.356c0,0.516.769,0.632,0.769,2.033V333.8c0,0.581-.031.807-0.3,0.807-0.706,0-2.384-2.5-3.325-5.342a0.825,0.825,0,0,0-.926-0.743h-2.054a0.5,0.5,0,0,0-.518.517c0,0.565.643,3.179,3.169,6.681,1.693,2.356,3.921,3.631,5.928,3.631,1.224,0,1.522-.21,1.522-0.742V336.8c0-.451.172-0.645,0.423-0.645,0.282,0,.781.093,1.945,1.274,1.38,1.357,1.474,1.921,2.227,1.921h2.306a0.434,0.434,0,0,0,.455-0.516c0-.534-0.675-1.485-1.71-2.615-0.424-.58-1.114-1.21-1.333-1.5A0.592,0.592,0,0,1,252.747,333.829Z" transform="translate(-227.125 -312.5)"/>
</svg>
